<svg xmlns="http://www.w3.org/2000/svg" width="201" height="44" fill="none"><path fill="#fff" fill-rule="evenodd" d="M22.005 43.533c11.877 0 21.506-9.641 21.506-21.533C43.51 10.108 33.88.467 22.005.467S.5 10.108.5 22c0 11.892 9.629 21.533 21.505 21.533ZM.892 22c0 11.676 9.452 21.14 21.113 21.14 7.592 0 14.248-4.01 17.968-10.034-3.473 4.888-9.177 8.074-15.624 8.074-10.58 0-19.16-8.586-19.16-19.185-.001-10.6 8.58-19.18 19.16-19.18 6.447 0 12.15 3.186 15.624 8.074C36.253 4.871 29.597.86 22.005.86 10.344.86.892 10.324.892 22Zm23.463 18.4c5.027 0 9.58-2.019 12.898-5.297a16.737 16.737 0 0 1-10.554 3.73c-9.285 0-16.812-7.536-16.812-16.833 0-9.297 7.527-16.833 16.812-16.833 3.994 0 7.666 1.394 10.554 3.73A18.308 18.308 0 0 0 24.355 3.6C14.205 3.6 5.973 11.836 5.973 22c0 10.163 8.226 18.4 18.376 18.4h.006Zm9.989-31.616a15.151 15.151 0 0 0-7.645-2.056c-8.42 0-15.248 6.837-15.248 15.267S18.28 37.26 26.7 37.26c2.785 0 5.398-.748 7.645-2.056-1.527.57-3.183.883-4.909.883-7.774 0-14.075-6.31-14.075-14.093C15.36 14.21 21.661 7.9 29.435 7.9c1.726 0 3.382.313 4.909.883Zm-1.392 2.643c.666 0 1.322.065 1.956.183a11.662 11.662 0 0 0-5.478-1.356c-6.479 0-11.731 5.26-11.731 11.746 0 6.487 5.252 11.746 11.731 11.746 1.979 0 3.844-.49 5.478-1.356-.634.118-1.29.183-1.956.183-5.828 0-10.56-4.732-10.56-10.573 0-5.84 4.726-10.573 10.56-10.573Zm2.989 3.758a7.375 7.375 0 0 0-2.99-.625c-4.102 0-7.43 3.333-7.43 7.44s3.328 7.44 7.43 7.44c1.065 0 2.076-.221 2.99-.625A6.849 6.849 0 0 1 29.828 22a6.849 6.849 0 0 1 6.113-6.815ZM33.736 22a2.932 2.932 0 0 0 2.93 2.934A2.932 2.932 0 0 0 39.597 22a2.932 2.932 0 0 0-2.93-2.934A2.932 2.932 0 0 0 33.737 22Z" clip-rule="evenodd"/><path fill="#fff" d="M134.154 23.841a3.912 3.912 0 0 1-3.565-3.897h5.629c.704 0 1.269-.571 1.269-1.27 0-.7-.57-1.271-1.269-1.271h-5.667a3.91 3.91 0 0 1-3.908-3.914h9.58a5.185 5.185 0 0 1 5.183 5.19c0 .72-.15 1.415-.414 2.04a5.19 5.19 0 0 1-2.715 9.609h-7.72a3.911 3.911 0 0 1-3.909-3.914h11.635c.704 0 1.268-.57 1.268-1.27 0-.7-.57-1.27-1.268-1.27h-4.108l-.021-.033Z"/><path fill="#fff" fill-rule="evenodd" d="M67.788 21.898c-.054-4.55-3.753-8.22-8.307-8.22-4.553 0-8.306 3.725-8.306 8.317 0 4.591 3.72 8.317 8.306 8.317a8.275 8.275 0 0 0 5.07-1.728 3.915 3.915 0 0 0 3.242 1.728v-8.42l-.005.006Zm-3.909.097a4.4 4.4 0 1 1-8.795 0 4.4 4.4 0 1 1 8.796 0ZM115.981 13.678a8.31 8.31 0 0 1 8.307 8.22v8.42a3.9 3.9 0 0 1-3.242-1.729 8.274 8.274 0 0 1-5.07 1.728c-4.591 0-8.312-3.725-8.312-8.317 0-4.592 3.721-8.317 8.312-8.317l.005-.005Zm4.398 8.317a4.399 4.399 0 1 1-8.795 0 4.398 4.398 0 1 1 8.795 0Z" clip-rule="evenodd"/><path fill="#fff" d="M176.686 13.678h3.908V30.51h-3.908v-6.352h-8.016v6.352h-3.909V13.678h3.909v6.95h8.016v-6.95Z"/><path fill="#fff" fill-rule="evenodd" d="M154.105 30.317c4.592 0 8.307-3.725 8.307-8.317 0-4.592-3.721-8.317-8.307-8.317s-8.306 3.725-8.306 8.317c0 4.592 3.72 8.317 8.306 8.317Zm0-3.913A4.4 4.4 0 0 0 158.503 22a4.4 4.4 0 0 0-4.398-4.404A4.4 4.4 0 0 0 149.707 22a4.4 4.4 0 0 0 4.398 4.404ZM100.148 30.317H88.713V19.944c.053-3.467 2.876-6.266 6.355-6.266h1.268a5.088 5.088 0 0 1 4.92 6.379 5.19 5.19 0 0 1 4.075 5.07 5.19 5.19 0 0 1-5.183 5.19Zm1.269-5.19c0-.705-.57-1.27-1.269-1.27h-7.527v2.547h7.527c.704 0 1.269-.571 1.269-1.271v-.005Zm-5.086-5.189c.65 0 1.172-.527 1.172-1.173s-.527-1.174-1.172-1.174h-1.269a2.443 2.443 0 0 0-2.44 2.347h3.709Z" clip-rule="evenodd"/><path fill="#fff" d="M80.697 13.678a6.261 6.261 0 0 1-6.259 6.266h-.392v-6.266h-3.909v13.506a3.134 3.134 0 0 0 3.13 3.133h.784v-6.46h1.957a6.454 6.454 0 0 1 6.452 6.46h3.909c0-3.849-2.097-7.208-5.205-9a10.16 10.16 0 0 0 3.446-7.64h-3.913Z"/><path fill="#fff" fill-rule="evenodd" d="M198.191 21.505v4.893h2.151v3.914h-16.619V13.677h6.646c4.317 0 7.822 3.505 7.822 7.833v-.005Zm-10.559-3.914h2.737a3.91 3.91 0 0 1 3.908 3.914v4.893h-6.645v-8.807Z" clip-rule="evenodd"/></svg>